<svg width="81" height="20" viewBox="0 0 81 20" fill="none" xmlns="http://www.w3.org/2000/svg">
<path d="M70.7767 17.3454L69.6399 18.0839C69.6399 18.0839 68.4858 17.4788 67.8538 17.5023C67.2219 17.5258 59.2957 17.7203 59.2957 17.7203L57.6894 17.8351L55.1564 14.665L55.3171 9.3612L61.771 7.08765L67.5642 7.52583L70.3026 9.83603L72.067 13.4021L70.7767 17.3454Z" fill="black"/>
<path d="M1.81022 13.2609L1.87221 13.5336C1.87221 13.5336 3.14158 15.271 4.79288 15.5639C6.44418 15.8569 6.32037 15.9176 6.32037 15.9176C6.32037 15.9176 9.014 16.5439 9.99451 16.0084C10.975 15.473 19.1697 16.6651 19.1697 16.6651L20.274 17.1095L21.4506 17.3317C21.4506 17.3317 23.7624 15.1903 23.7624 15.16C23.7624 15.1297 23.845 13.0488 23.845 13.0488L21.6467 7.16997L17.054 4.52342L14.7731 4.18002C14.7731 4.18002 7.90976 6.46293 7.90976 6.51343C7.90976 6.56386 7.06345 8.63473 7.06345 8.63473L5.12314 11.4428L3.52345 12.2206L1.81022 13.2609Z" fill="#070707"/>
<path d="M0.902028 11.6953C0.902028 11.6953 0.654391 13.1397 0.798904 13.4629C0.798904 13.4629 3.24623 13.8415 3.56542 13.7785C3.88477 13.7155 4.49826 12.7963 4.49826 12.7963L0.902028 11.6953Z" fill="#332C2B"/>
<path d="M2.15747 7.53739C2.13217 7.48574 2.10754 7.42793 2.08768 7.3648C2.01555 7.13521 2.25114 6.92317 2.25114 6.92317L4.94611 6.72974C4.94611 6.72974 6.88552 9.30814 6.92163 9.36997C6.95765 9.43179 5.84351 10.8271 5.84351 10.8271L4.7422 10.8271L3.78238 7.48845L2.15747 7.53739Z" fill="#473D3C"/>
<path d="M1.67198 10.2702L2.24945 9.66035L2.29477 7.76217C2.29477 7.76217 2.22405 7.67337 2.15761 7.53751L3.78252 7.48856L4.74234 10.8272L2.60079 10.8272L1.67198 10.2702Z" fill="#332C2B"/>
<path d="M1.05819 4.46896C1.05819 4.46896 0.986137 5.04285 1.33791 5.47538C1.68968 5.90798 2.0247 6.69315 2.0247 6.69315L4.47706 6.77326L4.5853 5.41362L3.22311 4.34541L1.05819 4.46896Z" fill="#3D000D"/>
<path d="M61.753 5.94511L62.4348 6.0922L63.0241 6.01873C63.0241 6.01873 56.8185 2.93663 47.7933 0.957277L47.6098 2.59709L61.0497 6.87722L61.753 5.94511Z" fill="#636363"/>
<path d="M78.4109 16.5284L80.3097 17.6387C79.9909 17.8348 79.1415 17.958 77.5669 17.9834C75.7643 18.0125 69.6399 18.0839 69.6399 18.0839C69.6399 18.0839 69.6093 18.054 69.639 17.8937C69.6468 17.8517 69.8575 17.123 70.0034 16.0747L75.9106 16.0149L78.4109 16.5284Z" fill="#3470FF"/>
<path d="M0.010415 10.3674C0.213403 9.59734 0.56643 9.84588 0.56643 9.84588L2.03745 9.79617L2.29011 9.32414L2.31549 10.0197L1.90936 10.3178L3.73683 10.4173L5.20894 9.67196L4.42211 7.03862L2.21388 7.06346L1.96012 6.56665L4.2952 6.59149L3.83838 5.24999C3.83838 5.24999 1.40167 4.52958 1.14791 4.60412C0.89415 4.67865 0.716378 4.4302 0.818001 4.35567C0.919457 4.28114 21.7327 0.803236 28.6114 0.38088C35.4899 -0.0413941 44.1706 -0.438997 48.4855 1.10128L48.3332 1.39943C48.3332 1.39943 59.2125 4.04333 62.2934 5.97046C62.2934 5.97046 69.1211 5.67225 76.9135 10.1937C76.9135 10.1937 79.2994 10.9142 81 13.0506C81 13.0506 79.8364 15.0827 79.111 15.4702C79.111 15.4702 80.6094 17.3013 80.4157 17.5491C80.3911 17.5805 80.356 17.6104 80.3098 17.6388L78.411 16.5285L75.9106 16.0149L70.0035 16.0747C70.4157 13.1123 70.3097 7.59658 63.6389 7.80912C55.0598 8.0824 57.8009 17.9199 57.8009 17.9199L21.3521 17.3732L22.4688 13.9449C22.4688 13.9449 22.5005 6.56656 15.7235 6.31812C8.94642 6.06976 8.31818 11.5847 8.31818 11.5847L8.31819 14.7398L6.34469 13.4727C6.34469 13.4727 4.05084 13.9199 3.34017 13.746C2.62958 13.5722 -0.192573 11.1377 0.010415 10.3674Z" fill="#3470FF"/>
<path d="M80.4956 13.0263C80.4956 13.0263 77.3047 11.5561 71.5317 11.0468C71.5317 11.0468 78.0215 12.2959 78.0313 12.6035C78.0411 12.9111 75.9107 16.082 75.9107 16.082C75.9107 16.082 80.4465 14.8137 80.4956 13.0263Z" fill="#BC2304"/>
<path d="M25.8884 3.35238L23.8521 3.61648C23.8521 3.61648 28.9158 1.32481 29.9439 1.21296C30.9719 1.10112 44.0883 0.0913589 48.6198 1.87991C53.1511 3.66855 39.1195 3.14222 39.1195 3.14222L25.8884 3.35238Z" fill="#7F0619"/>
<path d="M32.3678 1.59807C32.3678 1.59807 41.7846 0.206865 48.384 1.82167C54.9832 3.43639 60.5419 6.24365 60.5419 6.24365C60.3095 6.29817 60.0831 6.3495 59.8615 6.39845C58.6281 5.88221 52.6625 3.39359 51.912 3.23772C51.0744 3.06389 43.9166 0.952281 36.2513 1.49878C36.2513 1.49878 32.4692 1.64776 31.9871 2.96452C31.8268 3.40212 31.8717 3.79274 32.0025 4.11965C30.9965 3.97255 30.3881 3.88367 30.3881 3.88367L32.3678 1.59807Z" fill="#484949"/>
<path d="M31.9872 2.96444C32.2304 2.30029 33.3127 1.93344 34.3262 1.73272L34.1364 4.43182C33.3169 4.31186 32.5915 4.20575 32.0025 4.11958C31.8718 3.79266 31.8269 3.40205 31.9872 2.96444Z" fill="#C3BFBE"/>
<path d="M36.2513 1.49871C43.9166 0.952212 51.0743 3.06383 51.912 3.23765C52.6625 3.39344 58.6281 5.88214 59.8615 6.39838C53.8156 7.73326 51.7466 7.05681 50.6938 6.87716C50.01 6.7604 42.2168 5.6155 36.4884 4.77628L36.0794 1.5083C36.1888 1.50116 36.2513 1.49871 36.2513 1.49871Z" fill="#C3BFBE"/>
<path d="M36.0793 1.50822L36.4883 4.7762C35.6506 4.65345 34.857 4.53727 34.1363 4.43175L34.3261 1.73264C35.0644 1.58636 35.7659 1.52839 36.0793 1.50822Z" fill="#484949"/>
<path d="M24.8293 3.38673L30.0073 1.29988L31.3018 1.4086L32.0632 1.89607L30.4594 3.89395C30.4594 3.89395 27.2153 3.18797 24.8293 3.38673Z" fill="#484949"/>
<path d="M31.2764 1.50823L29.2967 3.08229L30.1088 3.71971L31.7586 1.87138L31.2764 1.50823Z" fill="#050505"/>
<path d="M72.3074 8.36583C72.3074 8.36583 75.2234 9.03851 76.3819 9.78803C77.5404 10.5376 78.1393 11.3063 78.1393 11.3063C78.1393 11.3063 77.3343 11.2871 77.1084 11.1141C76.8825 10.9411 74.2612 9.10575 72.3074 8.36583Z" fill="#221411"/>
<path d="M77.9626 13.0263L79.2193 13.6125C79.2193 13.6125 78.7285 13.872 78.6401 14.1026C78.5516 14.3332 78.3062 14.7367 78.3553 14.9866C78.4044 15.2364 78.6695 16.6297 78.6695 16.6297L77.1183 16.8316L75.9107 16.0148C75.9107 16.0148 77.5502 12.7476 77.9626 13.0263Z" fill="#221411"/>
<path d="M69.7801 11.5369C69.7801 11.5369 72.3565 11.7196 72.3074 12.1615C72.2583 12.6035 69.9346 12.1231 69.9346 12.1231L69.7801 11.5369Z" fill="#FDD8C5"/>
<path d="M20.1549 4.17987C20.1549 4.17987 37.0799 6.08297 41.5637 6.7732C46.0474 7.46359 58.1655 9.3612 58.1655 9.3612C58.1655 9.3612 24.1136 5.1265 20.1549 4.17987Z" fill="#BC2304"/>
<path d="M33.8485 5.84271C33.8485 5.84271 28.3953 5.89535 26.2141 6.87716C26.2141 6.87716 29.4052 12.3241 30.0312 12.7404C30.6573 13.1567 35.9295 14.501 36.6864 14.6194C37.4434 14.7381 57.0344 15.687 57.0344 15.687L37.1203 14.3823C37.1203 14.3823 33.6952 13.9079 33.1053 13.4335C32.5154 12.959 28.7184 9.71721 29.6475 8.49155C30.5766 7.26589 33.8485 5.84271 33.8485 5.84271Z" fill="#BC2304"/>
<path d="M29.0088 6.26646L28.2915 7.09009C28.2915 7.09009 30.6917 12.6798 32.899 13.5439C32.899 13.5439 30.9257 13.3078 30.388 12.9062C29.8503 12.5044 26.214 7.05992 26.214 6.96858C26.214 6.87724 28.1122 6.30688 29.0088 6.26646Z" fill="#121117"/>
<path d="M55.6234 15.5561C55.7963 15.5561 55.8712 15.5538 55.8759 15.5536L55.9603 15.5504L55.9483 15.4686C55.7881 14.3708 57.0951 9.03109 57.1084 8.9773L57.1208 8.92719L54.4053 7.12691L54.3199 7.2504L56.948 8.99271C56.8094 9.56126 55.6946 14.1815 55.7884 15.4063C55.1968 15.4135 51.1765 15.4043 36.7417 14.2476L33.877 6.35993L33.8673 6.34912C33.597 6.04927 33.3779 5.73473 33.3824 5.65413C33.4725 5.55032 34.2797 4.92478 34.7761 4.54834L34.6828 4.43043C34.5476 4.53301 33.3585 5.4366 33.2569 5.56943C33.146 5.71407 33.4577 6.11854 33.7434 6.43684L36.6313 14.3883L36.6804 14.3922C50.1852 15.4749 54.605 15.5561 55.6234 15.5561Z" fill="#0F0503"/>
<path d="M55.1562 16.1008L53.1129 17.5023L38.2787 17.3133L52.9199 17.2346L55.1562 16.1008Z" fill="#0F0503"/>
<path d="M57.6894 14.1819C57.6894 17.3952 60.3508 20 63.6339 20C66.9169 20 69.5782 17.3952 69.5782 14.1819C69.5782 10.9687 66.9168 8.36396 63.6339 8.36396C60.3507 8.36396 57.6894 10.9687 57.6894 14.1819Z" fill="#27262C"/>
<path d="M68.1102 14.1819C68.1102 16.6093 66.0997 18.577 63.6195 18.577C61.1395 18.577 59.1294 16.6093 59.1294 14.1819C59.1294 11.7548 61.1395 9.7871 63.6195 9.7871C66.0997 9.7871 68.1102 11.7548 68.1102 14.1819Z" fill="#C3BFBE"/>
<path d="M65.1777 11.2354L64.1387 12.3913C64.1387 12.3913 63.9591 12.6687 63.7136 12.6687C63.4677 12.6687 63.2882 12.4745 63.2882 12.4745L62.2018 11.2355C62.2018 11.2355 62.0506 11.0597 62.2018 10.9396C62.3529 10.8193 62.8832 10.6439 63.6194 10.6439C64.356 10.6437 65.4424 10.8378 65.1777 11.2354Z" fill="#27262C"/>
<path d="M65.1779 17.1286L64.139 15.9726C64.139 15.9726 63.9592 15.6953 63.7137 15.6953C63.4679 15.6953 63.2882 15.8894 63.2882 15.8894L62.202 17.1285C62.202 17.1285 62.0506 17.3042 62.202 17.4243C62.3531 17.5445 62.8834 17.7202 63.6196 17.7202C64.356 17.7203 65.4424 17.5261 65.1779 17.1286Z" fill="#27262C"/>
<path d="M60.5722 12.7127L61.753 13.7297C61.753 13.7297 62.0366 13.9054 62.0366 14.1457C62.0366 14.3864 61.8382 14.5619 61.8382 14.5619L60.5723 15.6254C60.5723 15.6254 60.3926 15.7734 60.2701 15.6254C60.1471 15.4774 59.9675 14.9584 59.9675 14.2378C59.9674 13.517 60.1659 12.4537 60.5722 12.7127Z" fill="#27262C"/>
<path d="M66.593 12.7127L65.4121 13.7297C65.4121 13.7297 65.1288 13.9054 65.1288 14.1457C65.1288 14.3863 65.3271 14.5617 65.3271 14.5617L66.5929 15.6253C66.5929 15.6253 66.7727 15.7734 66.8957 15.6253C67.0183 15.4772 67.1979 14.9584 67.1979 14.2376C67.1981 13.517 66.9995 12.4536 66.593 12.7127Z" fill="#27262C"/>
<path d="M9.16485 13.1196C9.16485 16.3845 11.869 19.0312 15.2049 19.0312C18.5406 19.0312 21.2447 16.3846 21.2447 13.1196C21.2447 9.85471 18.5407 7.20807 15.2049 7.20807C11.869 7.20807 9.16485 9.85463 9.16485 13.1196Z" fill="#27262C"/>
<path d="M19.7531 13.1196C19.7531 15.5859 17.7102 17.5852 15.1901 17.5852C12.6704 17.5852 10.6279 15.5859 10.6279 13.1196C10.6279 10.6533 12.6704 8.65402 15.1901 8.65402C17.7102 8.65402 19.7531 10.6532 19.7531 13.1196Z" fill="#C3BFBE"/>
<path d="M16.7735 10.1256L15.7177 11.3C15.7177 11.3 15.5352 11.5819 15.2857 11.5819C15.036 11.5819 14.8536 11.3846 14.8536 11.3846L13.7497 10.1256C13.7497 10.1256 13.5961 9.94703 13.7497 9.82494C13.9032 9.70285 14.442 9.52442 15.19 9.52442C15.9384 9.52442 17.0424 9.7217 16.7735 10.1256Z" fill="#27262C"/>
<path d="M16.7736 16.1135L15.718 14.939C15.718 14.939 15.5352 14.6571 15.2859 14.6571C15.0362 14.6571 14.8536 14.8544 14.8536 14.8544L13.7499 16.1134C13.7499 16.1134 13.5961 16.292 13.7499 16.414C13.9034 16.5361 14.4422 16.7147 15.1901 16.7147C15.9386 16.7148 17.0424 16.5174 16.7736 16.1135Z" fill="#27262C"/>
<path d="M12.0939 11.6266L13.2937 12.6601C13.2937 12.6601 13.5818 12.8387 13.5818 13.0827C13.5818 13.3272 13.3801 13.5056 13.3801 13.5056L12.0938 14.5863C12.0938 14.5863 11.9112 14.7367 11.7868 14.5863C11.6618 14.4359 11.4793 13.9085 11.4793 13.1764C11.4793 12.4439 11.6811 11.3636 12.0939 11.6266Z" fill="#27262C"/>
<path d="M18.2115 11.6266L17.0116 12.6601C17.0116 12.6601 16.7237 12.8385 16.7237 13.0827C16.7237 13.3271 16.9253 13.5055 16.9253 13.5055L18.2115 14.5861C18.2115 14.5861 18.3941 14.7366 18.5192 14.5861C18.6437 14.4357 18.8262 13.9085 18.8262 13.1763C18.8262 12.4438 18.6246 11.3633 18.2115 11.6266Z" fill="#27262C"/>
<path d="M21.7725 9.90514L22.7785 10.2581L24.7744 13.4308L23.4492 16.4314L21.9161 16.5565L23.0978 16.1344L23.992 13.5438L22.6189 10.4143L21.7725 9.90514Z" fill="#030400"/>
<path d="M10.3713 7.48843L7.85365 6.67085C7.85365 6.67085 7.58516 6.98006 7.69281 7.0796C7.80046 7.17914 10.0199 7.92939 10.0199 7.92939C10.0199 7.92939 10.2755 7.54747 10.3713 7.48843Z" fill="#FFD5BE"/>
</svg>
